<svg width="36" height="36" viewBox="0 0 36 36" fill="none" xmlns="http://www.w3.org/2000/svg">
<path fill-rule="evenodd" clip-rule="evenodd" d="M18 14.625C16.1361 14.625 14.625 16.1361 14.625 18C14.625 19.8639 16.1361 21.375 18 21.375C19.8639 21.375 21.375 19.8639 21.375 18C21.375 16.1361 19.8639 14.625 18 14.625ZM12.375 18C12.375 14.8934 14.8934 12.375 18 12.375C21.1067 12.375 23.625 14.8934 23.625 18C23.625 21.1067 21.1067 23.625 18 23.625C14.8934 23.625 12.375 21.1067 12.375 18Z" fill="black"/>
<path fill-rule="evenodd" clip-rule="evenodd" d="M14.4052 5.65527C14.0037 4.98635 13.1581 4.77827 12.5302 5.15186L12.5138 5.16158L9.91877 6.64644C9.09771 7.11563 8.81445 8.17934 9.2841 8.9922L8.31 9.55502L9.28332 8.99087C10.0859 10.3756 10.3017 11.8932 9.58473 13.1373C8.86788 14.3813 7.44719 14.955 5.85 14.955C4.90017 14.955 4.125 15.7376 4.125 16.68V19.32C4.125 20.2626 4.90017 21.045 5.85 21.045C7.44719 21.045 8.86788 21.6188 9.58473 22.8627C10.3016 24.1067 10.086 25.6241 9.28363 27.0087C8.81463 27.8214 9.09737 28.8842 9.91815 29.3532L12.5303 30.8481C13.1582 31.2216 14.0037 31.0137 14.4052 30.3449L14.5664 30.0663C15.3687 28.6821 16.578 27.7388 18.0131 27.7388C19.4493 27.7388 20.655 28.6829 21.45 30.0687C21.4503 30.0693 21.4506 30.0699 21.451 30.0705L21.6097 30.3447C22.0113 31.0137 22.8568 31.2218 23.4847 30.8483L23.5011 30.8385L26.0962 29.3537C26.9151 28.8857 27.2026 27.8367 26.7297 27.0057C25.9287 25.622 25.7139 24.1058 26.4303 22.8627C27.1471 21.6188 28.5678 21.045 30.165 21.045C31.1148 21.045 31.89 20.2626 31.89 19.32V16.68C31.89 15.7302 31.1076 14.955 30.165 14.955C28.5678 14.955 27.1471 14.3813 26.4303 13.1374C25.7134 11.8935 25.929 10.3762 26.7312 8.99168C27.2004 8.17887 26.9177 7.11587 26.0968 6.64679L23.4847 5.15199C22.8568 4.7784 22.0113 4.98635 21.6097 5.65529L21.4487 5.93369C20.6463 7.3179 19.437 8.26127 18.0018 8.26127C16.5658 8.26127 15.3603 7.31738 14.5653 5.93183C14.5649 5.93105 14.5644 5.93028 14.564 5.92952L14.4052 5.65527ZM11.3887 3.2129C13.1279 2.18484 15.3339 2.81556 16.3419 4.50981L16.3486 4.52132L16.5136 4.80635L16.5161 4.81052C17.0711 5.77871 17.6499 6.01127 18.0018 6.01127C18.3555 6.01127 18.9389 5.77673 19.5014 4.80635C19.5014 4.80651 19.5015 4.80618 19.5014 4.80635L19.6731 4.50977C20.6811 2.8155 22.8871 2.18484 24.6262 3.2129L27.2132 4.69325C29.122 5.78406 29.7694 8.2307 28.6791 10.1178L28.6784 10.1192C28.1159 11.0895 28.2042 11.7093 28.3797 12.0139C28.5553 12.3187 29.0472 12.705 30.165 12.705C32.3424 12.705 34.14 14.4798 34.14 16.68V19.32C34.14 21.4976 32.3652 23.295 30.165 23.295C29.0472 23.295 28.5553 23.6813 28.3797 23.9861C28.2042 24.2907 28.1159 24.9105 28.6784 25.8809L28.6818 25.8869C29.7666 27.7853 29.1236 30.2147 27.2137 31.3065C27.2136 31.3065 27.2139 31.3064 27.2137 31.3065L24.6261 32.7872C22.887 33.8151 20.6811 33.1845 19.6731 31.4903L19.6663 31.4787L19.5014 31.1937L19.499 31.1895C18.944 30.2214 18.3651 29.9888 18.0131 29.9888C17.6595 29.9888 17.0761 30.2234 16.5136 31.1937C16.5135 31.1939 16.5136 31.1936 16.5136 31.1937L16.3419 31.4903C15.3339 33.1845 13.128 33.8151 11.3889 32.7872L8.80185 31.3068C8.80164 31.3067 8.80204 31.307 8.80185 31.3068C6.89337 30.2159 6.24567 27.7692 7.3359 25.8822L7.33668 25.8809C7.89908 24.9105 7.81081 24.2907 7.63527 23.9861C7.45962 23.6813 6.96781 23.295 5.85 23.295C3.64983 23.295 1.875 21.4976 1.875 19.32V16.68C1.875 14.5026 3.64983 12.705 5.85 12.705C6.96781 12.705 7.45962 12.3187 7.63527 12.0139C7.81081 11.7093 7.89908 11.0895 7.33668 10.1192L7.3359 10.1178C6.24567 8.23089 6.89277 5.78459 8.80123 4.69359L11.3887 3.2129Z" fill="black"/>
</svg>
